{"title":"A Good Baby [2000] x264","uid":12280644,"size":628309677,"categoryP":"video","categoryS":"movies","magnet":"?xt=urn:btih:ea6f4b1f3cc14324ca29a96b62deabb84c1a3de0&amp;dn=A+Good+Baby+%5B2000%5D+x264&amp;tr=udp%3A%2F%2Ftracker.openbittorrent.com%3A80&amp;tr=udp%3A%2F%2Fopen.demonii.com%3A1337&amp;tr=udp%3A%2F%2Ftracker.coppersurfer.tk%3A6969&amp;tr=udp%3A%2F%2Fexodus.desync.com%3A6969","seeders":0,"leechers":1,"uploader":null,"files":1,"time":1440410109,"description":"If you enjoyed this rip please rate, comment, and seed.\nTorrents are a peer to peer file sharing system that rely on users like yourself to make content freely available.\nWhen you don't share, you are hurting the torrent community and making files unavailable to other users.\n\nFormat : MPEG-4\nFormat profile : Base Media / Version 2\nCodec ID : mp42\nFile size : 599 MiB\nDuration : 1h 29mn\nOverall bit rate mode : Variable\nOverall bit rate : 935 Kbps\n\nVideo\nID : 1\nFormat : AVC\nFormat/Info : Advanced Video Codec\nFormat profile : High@L3\nFormat settings, CABAC : Yes\nFormat settings, ReFrames : 4 frames\nCodec ID : avc1\nCodec ID/Info : Advanced Video Coding\nDuration : 1h 29mn\nBit rate : 800 Kbps\nWidth : 720 pixels\nHeight : 480 pixels\nDisplay aspect ratio : 4:3\nOriginal display aspect rat : 4:3\nFrame rate mode : Constant\nFrame rate : 29.970 fps\nStandard : NTSC\nColor space : YUV\nChroma subsampling : 4:2:0\nBit depth : 8 bits\nScan type : Progressive\nBits/(Pixel*Frame) : 0.077\nStream size : 513 MiB (86%)\nWriting library : x264 core 142 r2479 dd79a61\nEncoding settings : cabac=1 / ref=3 / deblock=1:0:0 / analyse=0x3:0x113 / me=hex / subme=7 / psy=1 / psy_rd=1.00:0.00 / mixed_ref=1 / me_range=16 / chroma_me=1 / trellis=1 / 8x8dct=1 / cqm=0 / deadzone=21,11 / fast_pskip=1 / chroma_qp_offset=-2 / threads=6 / lookahead_threads=1 / sliced_threads=0 / nr=0 / decimate=1 / interlaced=0 / bluray_compat=0 / constrained_intra=0 / bframes=3 / b_pyramid=2 / b_adapt=1 / b_bias=0 / direct=1 / weightb=1 / open_gop=0 / weightp=2 / keyint=300 / keyint_min=30 / scenecut=40 / intra_refresh=0 / rc_lookahead=40 / rc=2pass / mbtree=1 / bitrate=800 / ratetol=1.0 / qcomp=0.60 / qpmin=0 / qpmax=69 / qpstep=4 / cplxblur=20.0 / qblur=0.5 / ip_ratio=1.40 / aq=1:1.00\nColor range : Limited\nColor primaries : BT.601 NTSC\nTransfer characteristics : BT.709\nMatrix coefficients : BT.601\n\nAudio\nID : 2\nFormat : AAC\nFormat/Info : Advanced Audio Codec\nFormat profile : LC\nCodec ID : 40\nDuration : 1h 29mn\nBit rate mode : Variable\nBit rate : 128 Kbps\nChannel(s) : 2 channels\nChannel positions : Front: L R\nSampling rate : 48.0 KHz\nCompression mode : Lossy\nStream size : 82.0 MiB (14%)\nTitle : Stereo / Stereo\nLanguage : English\n\nMenu\nID : 3\nCodec ID : text\nDuration : 1h 29mn\nLanguage : English\n00:00:00.000 : Chapter 1\n00:06:25.518 : Chapter 2\n00:09:19.192 : Chapter 3\n00:16:34.627 : Chapter 4\n00:22:09.962 : Chapter 5\n00:27:14.266 : Chapter 6\n00:35:01.232 : Chapter 7\n00:39:42.013 : Chapter 8\n00:44:08.279 : Chapter 9\n00:50:11.141 : Chapter 10\n00:58:07.117 : Chapter 11\n01:05:36.566 : Chapter 12\n01:08:15.725 : Chapter 13\n01:12:39.488 : Chapter 14\n01:17:51.800 : Chapter 15\n01:21:23.512 : Chapter 16\nBit rate mode : VBR","torrent":{"xt":"urn:btih:ea6f4b1f3cc14324ca29a96b62deabb84c1a3de0","amp;dn":"A+Good+Baby+%5B2000%5D+x264","amp;tr":["udp%3A%2F%2Ftracker.openbittorrent.com%3A80","udp%3A%2F%2Fopen.demonii.com%3A1337","udp%3A%2F%2Ftracker.coppersurfer.tk%3A6969","udp%3A%2F%2Fexodus.desync.com%3A6969"],"infoHash":"ea6f4b1f3cc14324ca29a96b62deabb84c1a3de0","infoHashBuffer":{"type":"Buffer","data":[234,111,75,31,60,193,67,36,202,41,169,107,98,222,171,184,76,26,61,224]},"announce":[],"urlList":[]}}